<svg width="143" height="153" viewBox="0 0 143 153" fill="none" xmlns="http://www.w3.org/2000/svg">
<path d="M104.503 90.4556C95.4879 82.2389 100.478 69.1891 115.288 61.4557C120.278 59.0391 123.981 57.9113 130.42 58.0724C134.444 58.2335 138.951 60.4891 138.951 60.4891C138.951 32.9265 138.376 35.0435 138.313 12.5034C138.309 11.1962 138.307 9.80596 138.307 8.3222L143.137 8.3222L143.17 12.5113L143.62 69.3502C143.62 73.0557 140.239 79.6612 138.307 81.9168C129.454 92.5501 112.229 97.3834 104.503 90.4556Z" fill="#CFDEE7"/>
<path d="M15.1317 120.617C0.321932 128.35 -4.66831 141.4 4.34632 149.617C12.0732 156.544 29.2975 151.711 38.1512 141.078C40.0829 138.822 43.4634 132.217 43.4634 128.511C43.4634 106.278 43.6244 47.6335 43.6244 47.6335V12.423H88.6317C88.6302 11.1285 88.6294 9.81604 88.6294 8.48353C90.2392 8.48353 91.366 8.32242 93.6196 8.32242V12.4311L138.313 12.5034C138.309 11.1962 138.307 9.80596 138.307 8.3222L143.137 8.3222L138.307 8.31439L43.6244 8.16127L39 8.16126C39 35.2279 38.7951 90.4889 38.7951 119.65C38.7951 119.65 34.2878 117.394 30.2634 117.233C23.8244 117.072 20.1219 118.2 15.1317 120.617Z" fill="#CFDEE7"/>
<path d="M93.6196 8.32242C91.366 8.32242 90.2392 8.48353 88.6294 8.48353C88.6294 9.81604 88.6302 11.1285 88.6317 12.423L93.6196 12.4311V8.32242Z" fill="#CFDEE7"/>
<path d="M39 8.16126L43.6244 8.16127V3H138.307V8.31439L143.137 8.3222V3.8147e-06H39V8.16126Z" fill="#CFDEE7"/>
</svg>
