<svg width="132" height="145" viewBox="0 0 132 145" fill="none" xmlns="http://www.w3.org/2000/svg">
<path d="M4.34638 141.617C-4.66825 133.4 0.321993 120.35 15.1317 112.617C20.122 110.2 23.8244 109.072 30.2635 109.233C34.2878 109.394 38.7952 111.65 38.7952 111.65C38.7952 82.4889 38.6342 27.3889 38.6342 0.322221C40.2439 0.322221 41.3708 0.16111 43.6244 0.16111C43.6244 1.77222 43.6244 3.06111 43.6244 4.35C43.6244 5.8 43.6244 6.60555 43.7854 7.57222C45.3952 17.7222 47.6488 21.75 58.9171 34.1556C73.2439 50.1056 77.4293 59.6111 77.4293 72.3389C77.2683 84.2611 66.8049 109.717 64.5513 108.75C67.7708 99.7278 72.2781 90.0611 73.4049 82.0056C74.8537 72.1778 70.8293 58.3222 64.3903 51.0722C59.2391 44.95 47.0049 39.6333 43.6244 39.6333C43.6244 39.6333 43.4635 98.2778 43.4635 120.511C43.4635 124.217 40.083 130.822 38.1513 133.078C29.2976 143.711 12.0732 148.544 4.34638 141.617Z" fill="#CFDEE7"/>
<path d="M127.654 3.38334C136.668 11.6 131.678 24.65 116.868 32.3833C111.878 34.8 108.176 35.9278 101.737 35.7667C97.7122 35.6056 93.2049 33.35 93.2049 33.35C93.2049 62.5111 93.3659 117.611 93.3659 144.678C91.7561 144.678 90.6293 144.839 88.3756 144.839C88.3756 143.228 88.3756 141.939 88.3756 140.65C88.3756 139.2 88.3756 138.394 88.2147 137.428C86.6049 127.278 84.3512 123.25 73.0829 110.844C58.7561 94.8944 54.5708 85.3889 54.5708 72.6611C54.7317 60.7389 65.1951 35.2833 67.4488 36.25C64.2293 45.2722 59.722 54.9389 58.5951 62.9944C57.1464 72.8222 61.1708 86.6778 67.6098 93.9278C72.761 100.05 84.9951 105.367 88.3756 105.367C88.3756 105.367 88.5366 46.7222 88.5366 24.4889C88.5366 20.7833 91.9171 14.1778 93.8488 11.9222C102.702 1.2889 119.927 -3.54443 127.654 3.38334Z" fill="#CFDEE7"/>
</svg>
