<svg width="104" height="88" viewBox="0 0 104 88" fill="none" xmlns="http://www.w3.org/2000/svg">
<path d="M38.8249 10.7668L22.7608 26.75H4.33333C1.93917 26.75 0 28.6799 0 31.0625V56.9375C0 59.3184 1.93917 61.25 4.33333 61.25H22.7608L38.8249 77.2332C41.5386 79.9339 46.2222 78.0364 46.2222 74.1839V13.8161C46.2222 9.96001 41.535 8.0697 38.8249 10.7668ZM80.9521 1.58837C78.9353 0.271259 76.2251 0.826493 74.9017 2.8372C73.5764 4.84431 74.1397 7.54141 76.1565 8.85852C88.1219 16.6731 95.2629 29.8101 95.2629 44.0018C95.2629 58.1935 88.1219 71.3305 76.1565 79.1451C74.1397 80.4604 73.5764 83.1593 74.9017 85.1646C76.1728 87.0891 78.8612 87.7809 80.9521 86.4135C95.3821 76.987 104 61.1296 104 44C104 26.8704 95.3821 11.0148 80.9521 1.58837ZM86.6667 44C86.6667 32.5845 80.8781 22.0889 71.1804 15.9256C69.16 14.6427 66.4806 15.2392 65.2004 17.2661C63.9203 19.293 64.5179 21.9757 66.5383 23.2605C73.7154 27.8227 78 35.5745 78 44C78 52.4256 73.7154 60.1773 66.5383 64.7395C64.5179 66.0225 63.9203 68.7052 65.2004 70.7339C66.3758 72.5955 69.0138 73.4544 71.1804 72.0744C80.8781 65.9111 86.6667 55.4174 86.6667 44ZM61.0693 30.1874C58.9785 29.05 56.3406 29.7993 55.1814 31.8855C54.0276 33.9717 54.7914 36.5933 56.8876 37.7451C59.2186 39.0191 60.6667 41.4179 60.6667 44C60.6667 46.5839 59.2186 48.9809 56.8894 50.2549C54.7932 51.4067 54.0294 54.0284 55.1832 56.1145C56.3442 58.2097 58.9839 58.9536 61.0711 57.8126C66.1682 55.0184 69.3351 49.7267 69.3351 43.9982C69.3351 38.2698 66.1682 32.9798 61.0693 30.1874Z" fill="#CFDEE7"/>
</svg>
