<svg width="238" height="622" viewBox="0 0 238 622" fill="none" xmlns="http://www.w3.org/2000/svg">
<g filter="url(#filter0_d)">
<path d="M156.308 0.855381C132.952 0.247018 105.638 56.1996 106.546 106.099C106.756 121.297 111.538 152.121 118.514 190.834C74.5182 236.519 23.4303 283.405 23.4303 344.924C22.7288 401.3 57.0715 473.125 138.551 472.434C151.058 472.347 162.312 470.793 172.309 468.116C179.758 509.091 184.712 541.431 184.682 556.37C184.944 615.263 107.819 621.092 104.123 587.241C120.377 586.68 133.31 573.727 133.31 557.708C133.31 541.344 119.805 528.002 103.047 528.002C93.8328 528.002 85.6215 532.061 80.0527 538.408C79.9235 538.538 79.7729 538.667 79.6481 538.797C78.3915 540.135 77.3328 541.733 76.287 543.546C72.8527 549.375 70.6235 557.751 70.503 569.711C70.503 619.019 194.769 650.755 194.769 553.52C194.963 540.437 189.355 507.234 181.187 465.396C269.854 433.229 247.579 301.151 165.991 300.529C159.665 300.594 153.567 301.332 147.701 302.826C143.053 280.387 138.569 258.609 134.652 238.596C165.634 208.066 192.686 168.546 192.08 95.7108C192.174 43.4062 174.805 1.46418 156.308 0.855381V0.855381ZM161.821 51.4544C172.391 50.4311 180.783 60.2755 180.783 81.946C181.639 119.164 155.65 151.668 124.702 184.357C121.742 166.452 119.801 151.944 119.59 143.339C120.468 85.1972 144.202 53.1599 161.821 51.4544ZM128.601 244.399C132.376 263.894 136.451 284.433 140.57 305.119C86.5683 324.393 60.652 399.909 137.209 433.704C90.5448 393.847 113.513 346.668 147.159 338.447C155.619 380.83 163.882 422.651 170.562 458.79C161.494 461.985 150.911 463.842 138.551 463.928C107.647 463.928 45.8907 444.196 45.8907 369.478C45.8907 306.898 89.1289 281.467 128.601 244.399ZM154.828 337.096C156.175 337.014 157.634 337.048 158.993 337.096C215.211 337.096 236.415 426.666 179.169 455.293C172.046 419.369 163.409 378.179 154.828 337.096Z" fill="#92B4F4"/>
<path d="M156.308 0.855381C132.952 0.247018 105.638 56.1996 106.546 106.099C106.756 121.297 111.538 152.121 118.514 190.834C74.5182 236.519 23.4303 283.405 23.4303 344.924C22.7288 401.3 57.0715 473.125 138.551 472.434C151.058 472.347 162.312 470.793 172.309 468.116C179.758 509.091 184.712 541.431 184.682 556.37C184.944 615.263 107.819 621.092 104.123 587.241C120.377 586.68 133.31 573.727 133.31 557.708C133.31 541.344 119.805 528.002 103.047 528.002C93.8328 528.002 85.6215 532.061 80.0527 538.408C79.9235 538.538 79.7729 538.667 79.6481 538.797C78.3915 540.135 77.3328 541.733 76.287 543.546C72.8527 549.375 70.6235 557.751 70.503 569.711C70.503 619.019 194.769 650.755 194.769 553.52C194.963 540.437 189.355 507.234 181.187 465.396C269.854 433.229 247.579 301.151 165.991 300.529C159.665 300.594 153.567 301.332 147.701 302.826C143.053 280.387 138.569 258.609 134.652 238.596C165.634 208.066 192.686 168.546 192.08 95.7108C192.174 43.4062 174.805 1.46418 156.308 0.855381V0.855381ZM161.821 51.4544C172.391 50.4311 180.783 60.2755 180.783 81.946C181.639 119.164 155.65 151.668 124.702 184.357C121.742 166.452 119.801 151.944 119.59 143.339C120.468 85.1972 144.202 53.1599 161.821 51.4544ZM128.601 244.399C132.376 263.894 136.451 284.433 140.57 305.119C86.5683 324.393 60.652 399.909 137.209 433.704C90.5448 393.847 113.513 346.668 147.159 338.447C155.619 380.83 163.882 422.651 170.562 458.79C161.494 461.985 150.911 463.842 138.551 463.928C107.647 463.928 45.8907 444.196 45.8907 369.478C45.8907 306.898 89.1289 281.467 128.601 244.399ZM154.828 337.096C156.175 337.014 157.634 337.048 158.993 337.096C215.211 337.096 236.415 426.666 179.169 455.293C172.046 419.369 163.409 378.179 154.828 337.096Z" stroke="#92B4F4"/>
</g>
<defs>
<filter id="filter0_d" x="0.919739" y="0.350464" width="237.779" height="620.871" filterUnits="userSpaceOnUse" color-interpolation-filters="sRGB">
<feFlood flood-opacity="0" result="BackgroundImageFix"/>
<feColorMatrix in="SourceAlpha" type="matrix" values="0 0 0 0 0 0 0 0 0 0 0 0 0 0 0 0 0 0 127 0" result="hardAlpha"/>
<feOffset dx="-22" dy="4"/>
<feComposite in2="hardAlpha" operator="out"/>
<feColorMatrix type="matrix" values="0 0 0 0 0.368627 0 0 0 0 0.486275 0 0 0 0 0.886275 0 0 0 1 0"/>
<feBlend mode="normal" in2="BackgroundImageFix" result="effect1_dropShadow"/>
<feBlend mode="normal" in="SourceGraphic" in2="effect1_dropShadow" result="shape"/>
</filter>
</defs>
</svg>
