<svg width="54" height="92" viewBox="0 0 54 92" fill="none" xmlns="http://www.w3.org/2000/svg">
<path d="M22.109 59.818L13.569 50.058L23.573 40.786C26.013 38.4273 27.965 36.15 29.429 33.954C30.893 31.6767 31.625 29.2773 31.625 26.756C31.625 24.804 30.893 23.218 29.429 21.998C28.0464 20.778 25.5657 20.168 21.987 20.168L6.37104 25.414L0.515039 9.066C2.79237 7.19533 6.08637 5.284 10.397 3.332C14.789 1.38 20.0757 0.403993 26.257 0.403993C35.773 0.403993 42.6864 2.39666 46.997 6.382C51.3077 10.3673 53.463 15.4913 53.463 21.754C53.463 27.4473 51.999 32.5307 49.071 37.004C46.2244 41.396 42.9304 44.934 39.189 47.618L22.109 59.818ZM22.109 91.66L8.68904 78.24L22.109 64.82L35.529 78.24L22.109 91.66Z" fill="#CFDEE7"/>
</svg>
