<svg width="61" height="174" viewBox="0 0 61 174" fill="none" xmlns="http://www.w3.org/2000/svg">
<path d="M37.4813 0.00138677C30.8938 -0.170179 23.1896 15.6091 23.4457 29.6814C23.5052 33.9675 24.8538 42.6603 26.8214 53.5776C14.4124 66.4615 0.00296697 79.6839 0.00296697 97.0328C-0.194888 112.932 9.49151 133.187 32.473 132.992C36.0004 132.968 39.1746 132.53 41.9943 131.775C44.0955 143.33 45.4926 152.45 45.4841 156.663C45.5582 173.272 23.805 174.916 22.7624 165.369C27.347 165.211 30.9946 161.558 30.9946 157.041C30.9946 152.426 27.1856 148.663 22.4589 148.663C19.8601 148.663 17.5441 149.808 15.9734 151.598C15.937 151.634 15.8945 151.671 15.8593 151.707C15.5048 152.085 15.2062 152.535 14.9113 153.047C13.9426 154.691 13.3139 157.053 13.2799 160.426C13.2799 174.331 48.3293 183.281 48.3293 155.86C48.384 152.17 46.8023 142.806 44.4985 131.007C69.5071 121.936 63.2243 84.6884 40.2124 84.513C38.4281 84.5313 36.7081 84.7395 35.0536 85.1608C33.7427 78.8328 32.4779 72.691 31.3733 67.0472C40.1117 58.4372 47.7419 47.2922 47.5707 26.7518C47.5974 12.0012 42.6984 0.173074 37.4813 0.00138677V0.00138677ZM39.0362 14.2709C42.0174 13.9824 44.3844 16.7586 44.3844 22.8699C44.6259 33.366 37.2956 42.5324 28.5669 51.7512C27.7318 46.7016 27.1844 42.6103 27.1249 40.1836C27.3725 23.7868 34.0668 14.7519 39.0362 14.2709ZM29.6666 68.6837C30.7312 74.1814 31.8807 79.9737 33.0423 85.8074C17.8111 91.243 10.5014 112.54 32.0943 122.07C18.9327 110.83 25.4109 97.5248 34.9007 95.2064C37.2871 107.159 39.6177 118.953 41.5015 129.144C38.944 130.046 35.9592 130.569 32.473 130.593C23.7565 130.593 6.33797 125.029 6.33797 103.958C6.33797 86.3091 18.5334 79.1372 29.6666 68.6837ZM37.0638 94.8253C37.4437 94.8021 37.8552 94.8119 38.2387 94.8253C54.0951 94.8253 60.0756 120.085 43.9292 128.158C41.9203 118.027 39.4841 106.411 37.0638 94.8253Z" fill="#CFDEE7"/>
</svg>
